HIERARCHY
ROOT Hips
{
  OFFSET 47.6176 90.9497 86.0644
  CHANNELS 6 Xposition Yposition Zposition Zrotation Xrotation Yrotation
  JOINT RightUpLeg
  {
    OFFSET -8.9458 -8.66707 0.101652
    CHANNELS 3 Zrotation Xrotation Yrotation
    JOINT RightLeg
    {
      OFFSET 0 -44.4227 1.3727
      CHANNELS 3 Zrotation Xrotation Yrotation
      JOINT RightFoot
      {
        OFFSET 0.253549 -42.0924 -1.46059
        CHANNELS 3 Zrotation Xrotation Yrotation
        JOINT RightToes
        {
          OFFSET 0.04 -4.41509 8.4991
          CHANNELS 3 Zrotation Xrotation Yrotation
          End Site
          {
            OFFSET -0.08 -0.137448 9.77979
          }
        }
      }
    }
  }
  JOINT Spine
  {
    OFFSET 0 11.8905 0
    CHANNELS 3 Zrotation Xrotation Yrotation
    JOINT Spine1
    {
      OFFSET 0 25.6574 0.127663
      CHANNELS 3 Zrotation Xrotation Yrotation
      JOINT HEad
      {
        OFFSET 0 8.73416 0.011341
        CHANNELS 3 Zrotation Xrotation Yrotation
        End Site
        {
          OFFSET -0.29 12.7742 2.51395
        }
      }
      JOINT LeftShoulder1
      {
        OFFSET 8.99 -0.362252 -0.22
        CHANNELS 3 Zrotation Xrotation Yrotation
        JOINT LeftArm
        {
          OFFSET 10.2827 -0.00337999 0.322123
          CHANNELS 3 Zrotation Xrotation Yrotation
          JOINT LeftForeArm
          {
            OFFSET 32.7669 0.099144 -1.42434
            CHANNELS 3 Zrotation Xrotation Yrotation
            JOINT LeftHand
            {
              OFFSET 27.5643 0.085362 1.02216
              CHANNELS 3 Zrotation Xrotation Yrotation
              End Site
              {
                OFFSET 16.7443 -0.6 1.50291
              }
            }
          }
        }
      }
      JOINT RightShoulder
      {
        OFFSET -8.99 -0.362252 -0.22
        CHANNELS 3 Zrotation Xrotation Yrotation
        JOINT RightArm
        {
          OFFSET -10.2827 -0.00338 0.322123
          CHANNELS 3 Zrotation Xrotation Yrotation
          JOINT RightForeArm
          {
            OFFSET -32.8971 0.099144 -1.42434
            CHANNELS 3 Zrotation Xrotation Yrotation
            JOINT RightHand
            {
              OFFSET -27.4921 0.085362 1.02216
              CHANNELS 3 Zrotation Xrotation Yrotation
              End Site
              {
                OFFSET -16.6312 -0.6 1.50291
              }
            }
          }
        }
      }
    }
  }
  JOINT LeftUpLeg
  {
    OFFSET 8.9458 -8.66707 0.101652
    CHANNELS 3 Zrotation Xrotation Yrotation
    JOINT LeftLeg
    {
      OFFSET 0 -44.4227 1.3727
      CHANNELS 3 Zrotation Xrotation Yrotation
      JOINT LeftFoot
      {
        OFFSET -0.253549 -42.0924 -1.46059
        CHANNELS 3 Zrotation Xrotation Yrotation
        JOINT LeftToes
        {
          OFFSET -0.04 -4.41509 8.4991
          CHANNELS 3 Zrotation Xrotation Yrotation
          End Site
          {
            OFFSET 0.08 -0.047448 9.77979
          }
        }
      }
    }
  }
}
MOTION
Frames:	18
Frame Time:	0.0166667
28.235 92.4281 79.8133 12.5679 -4.55971 -142.671 11.343 -42.9483 6.42764 -18.8865 5.942 67.3505 26.816 8.05724 -3.17254 0.0462048 0.000533964 0.662642 6.28376 2.51598 -10.3625 12.0848 3.81442 -20.6236 3.33617 -13.5731 35.7595 -7.95139e-016 -3.18055e-015 -3.97569e-016 -31.2085 -23.9356 -83.2773 15.7246 -10.9074 -14.8392 0.986522 19.8984 40.5889 -15.114 -0.694721 7.59148 87.6489 -45.2124 22.9886 39.3871 50.1448 71.2436 -13.8788 13.8351 46.3719 8.92872 3.1154 -1.20143 -22.6181 40.4283 31.7523 -3.45131 -6.55175 0.330081 -2.38351e-030 2.8625e-014 4.77083e-015 
27.6495 92.5708 79.7335 12.4908 -5.27212 -144.129 11.766 -42.7197 6.71513 -18.8471 4.87204 68.4307 26.6448 8.02597 -3.17448 0.0462048 0.000533964 0.662642 6.2499 2.67838 -10.9054 12.2318 4.13873 -21.6158 0.647275 -12.9371 35.6736 -4.96962e-017 3.18055e-015 -0 -21.4846 -22.8511 -80.5967 10.7192 -18.7952 -11.6625 0.514576 19.761 36.7568 -18.6128 -0.907966 6.95044 89.1026 -44.1609 19.834 34.4947 50.7342 78.978 -14.8014 13.6434 44.7279 8.36048 3.26093 -1.24911 -22.4674 39.7111 29.5966 -2.23095 -4.90529 0.395419 -1.67728e-030 3.02153e-014 3.18055e-015 
27.2198 92.6849 79.6191 12.1471 -5.76544 -145.119 11.8825 -42.4764 6.89738 -18.9819 4.37076 69.1957 26.3035 8.02807 -3.16849 0.0462048 0.000533964 0.662642 6.1477 2.8891 -11.0344 12.215 4.58777 -21.8669 -2.16763 -12.6726 34.3308 -1.49089e-016 0 -2.98177e-016 -20.1052 -22.6437 -80.1072 10.4201 -21.4129 -12.5832 0.489902 19.7563 35.8187 -20.6548 -1.00834 6.52894 90.1074 -43.5613 18.0458 31.3988 51.0088 84.7693 -15.3463 13.6069 43.3304 8.00791 3.06444 -1.58231 -22.05 39.8963 27.4081 -1.22933 -2.57616 0.43673 -3.18055e-015 2.38542e-014 6.36111e-015 
26.9684 92.799 79.49 11.5919 -6.0184 -145.581 11.7064 -42.1518 6.98276 -19.3389 4.32889 69.6443 25.7504 7.90301 -3.1107 0.0462048 0.000533964 0.662642 6.00392 3.12154 -10.8266 12.0872 5.10948 -21.4927 -4.75586 -12.4721 32.1186 -2.48481e-017 0 1.49089e-016 -27.3161 -23.8075 -82.2263 14.4723 -18.1483 -16.9625 1.40285 20.0079 37.4603 -20.9109 -1.01406 6.43455 90.2221 -43.192 17.4446 29.0943 51.244 89.5505 -16.0497 13.4885 42.1123 7.99464 2.5766 -2.12592 -21.3874 40.8972 25.4416 -0.648858 -0.180724 0.45428 9.54166e-015 2.70347e-014 1.59028e-015 
26.8955 92.9183 79.3573 10.8813 -6.04504 -145.489 11.2517 -41.7507 6.97539 -19.913 4.71315 69.7846 24.9685 7.55625 -2.97623 0.0462048 0.000533964 0.662642 5.84428 3.34748 -10.3802 11.8832 5.63718 -20.6624 -6.86931 -12.0982 29.5279 -9.93923e-017 -6.36111e-015 -0 -47.2599 -27.7215 -88.9137 6.5052 -2.73309 -30.3474 8.62406 21.9647 36.7308 -19.3773 -0.955339 6.85624 89.2778 -43.0743 17.8608 26.8111 51.5052 93.8694 -17.2817 13.1718 40.8597 8.4097 1.83468 -2.75676 -20.4908 42.5261 23.8243 -0.548607 1.77976 0.471087 -6.62086e-031 2.38542e-014 1.59028e-015 
26.9986 93.0227 79.2491 10.0428 -5.90937 -144.931 10.5538 -41.3278 6.88345 -20.6432 5.45745 69.6985 24.0516 6.99711 -2.7794 0.0462048 0.000533964 0.662642 5.65608 3.54778 -9.73484 11.6204 6.10922 -19.558 -8.3884 -11.4778 27.0297 -3.97569e-016 -6.36111e-015 3.97569e-016 -81.0609 -31.8857 -101.342 -14.8177 32.2773 -41.9104 24.2394 25.5003 33.2862 -16.3692 -0.830259 7.90606 87.3421 -43.3639 19.0888 24.301 51.8224 97.7107 -19.108 12.6778 39.4113 9.21545 0.80959 -3.31713 -19.3592 44.5825 22.5362 -0.886006 3.04865 0.504492 -3.18055e-015 2.22639e-014 3.18055e-015 
27.2086 93.096 79.1367 9.11816 -5.63146 -143.943 9.61366 -40.9935 6.69141 -21.4266 6.76463 69.3858 22.9679 6.24444 -2.52677 0.0462048 0.000533964 0.662642 5.47986 3.71138 -9.01154 11.3054 6.48698 -18.3308 -9.33295 -10.6789 24.9462 3.97569e-016 0 2.38542e-015 -120.126 -32.3771 -115.198 -60.9919 67.6168 -20.3592 34.0145 27.6116 32.2335 -12.366 -0.592046 9.50101 84.6166 -44.2641 20.8744 21.8963 52.3184 100.589 -21.2578 12.1329 37.8175 10.3608 -0.417175 -3.73575 -17.9276 46.73 21.3145 -1.58743 3.69095 0.557015 -3.18055e-015 2.8625e-014 1.59028e-015 
27.4764 93.1064 79.016 8.09672 -5.23694 -142.593 8.4216 -40.8409 6.38837 -22.1838 8.79688 68.8903 21.7244 5.34555 -2.24255 0.0462048 0.000533964 0.662642 5.28858 3.8261 -8.29094 10.9245 6.76099 -17.0713 -9.83189 -9.81903 23.3877 1.76556e-031 3.18055e-015 -3.18055e-015 -137.498 -33.2233 -116.093 -112.622 74.5312 15.6831 34.2493 27.9018 33.0531 -7.80772 -0.187821 11.4042 81.3171 -45.9692 22.9318 20.2864 53.2041 101.856 -23.2273 11.6768 36.3973 11.7114 -1.7852 -3.9731 -16.1758 48.73 19.8784 -2.63041 4.03909 0.631404 -4.76702e-030 2.8625e-014 9.54166e-015 
27.7619 93.0494 78.9173 6.99598 -4.75109 -140.985 7.03557 -40.7787 6.0029 -22.9006 11.3082 68.232 20.5063 4.38865 -1.97384 0.0462048 0.000533964 0.662642 5.1223 3.92705 -7.58374 10.4575 6.97925 -15.8143 -10.0519 -8.98497 22.2709 -1.59028e-015 1.59028e-014 1.59028e-015 -136.022 -36.0852 -106.158 -119.347 80.6251 11.7477 31.8559 28.098 36.0155 -2.98663 0.404398 13.349 77.584 -48.5566 24.9614 20.1593 54.5926 101.038 -24.4878 11.3812 35.6115 13.1218 -3.2536 -4.04005 -14.1479 50.3744 18.085 -4.00206 4.7237 0.747435 3.18055e-015 2.54444e-014 -1.59028e-015 
28.0248 92.9112 78.8395 5.77618 -4.18632 -139.198 5.47929 -40.7556 5.5671 -23.5892 14.2628 67.4592 19.3323 3.40375 -1.73266 0.0462048 0.000533964 0.662642 4.94144 4.03771 -6.88194 9.86844 7.19999 -14.5532 -10.1241 -8.1978 21.3887 1.59028e-015 6.36111e-015 3.18055e-015 -130.57 -37.946 -93.615 -90.9355 88.127 -25.1396 28.6237 28.2038 40.0724 1.92883 1.16804 15.1228 73.4143 -51.89 26.6255 22.0063 56.3101 97.947 -24.6461 11.2713 35.8252 14.4421 -4.67602 -3.98225 -11.9809 51.4884 15.9428 -5.62049 6.47889 0.954794 6.36111e-015 2.22639e-014 4.77083e-015 
28.2383 92.6624 78.7902 4.40828 -3.54205 -137.267 3.78337 -40.7062 5.1233 -24.2909 17.6045 66.5985 18.2224 2.39888 -1.52035 0.0462048 0.000533964 0.662642 4.73525 4.18663 -6.18178 9.1269 7.4859 -13.271 -10.1048 -7.4203 20.4919 -1.59028e-015 0 -0 -122.083 -37.4596 -79.2751 30.6631 81.2434 -153.316 24.0184 27.9083 45.3885 6.80391 2.05227 16.5845 68.6166 -55.6433 27.4852 26.075 57.903 92.6493 -23.4873 11.409 37.1443 15.587 -5.92921 -3.87555 -9.92593 52.0692 13.6871 -7.37411 9.81525 1.33323 -3.70768e-030 2.22639e-014 9.54166e-015 
28.3858 92.2815 78.7717 2.86767 -2.82184 -135.189 1.98354 -40.5226 4.69922 -25.071 21.1927 65.6677 17.2325 1.38239 -1.33483 0.0462048 0.000533964 0.662642 4.49067 4.38852 -5.48316 8.21842 7.8761 -11.9599 -9.982 -6.58065 19.3542 1.59028e-015 -6.36111e-015 -0 -112.393 -33.5816 -64.9171 30.9641 69.0382 -158.499 17.5547 26.6853 51.9229 11.4614 2.97612 17.6567 62.813 -59.4158 26.9395 32.2114 58.8108 85.5792 -20.9799 11.9287 39.3624 16.53 -6.88715 -3.80022 -8.25231 52.221 11.7194 -9.19364 14.7778 1.96474 1.27222e-014 2.14687e-014 -0 
28.4609 91.768 78.7801 1.1475 -2.04095 -132.935 0.0627776 -40.1236 4.2818 -25.8898 24.9176 64.6484 16.3786 0.406076 -1.1817 0.0462048 0.000533964 0.662642 4.19368 4.63663 -4.79572 7.15556 8.37023 -10.6339 -9.70798 -5.59483 17.8152 3.18055e-015 0 3.18055e-015 -103.631 -26.1055 -52.5743 28.966 54.6647 -159.72 9.22711 23.903 59.0291 15.6629 3.83868 18.3176 55.5138 -62.8136 24.2435 39.567 58.6207 77.8063 -17.3321 12.9621 41.9829 17.2983 -7.4521 -3.8192 -7.16471 52.1284 10.5006 -11.0012 20.8516 2.87713 -9.54166e-015 2.78299e-014 2.38542e-015 
28.4694 91.1538 78.8092 -0.728186 -1.23073 -130.457 -2.00442 -39.4163 3.8379 -26.6331 28.608 63.4495 15.6796 -0.431777 -1.06393 0.0462048 0.000533964 0.662642 3.83257 4.90228 -4.14149 5.98172 8.92564 -9.33566 -9.2349 -4.38345 15.8022 4.77083e-015 0 3.18055e-015 -97.0661 -16.0191 -43.3023 27.4459 39.0371 -159.682 -0.106338 19.3534 65.248 19.1505 4.54141 18.594 46.3529 -65.4556 18.7357 46.6646 57.3426 70.9169 -13.0764 14.4654 44.3655 17.9445 -7.61146 -3.9592 -6.76094 52.0293 10.3955 -12.5199 27.0764 3.94478 -3.18055e-015 2.38542e-014 4.37326e-015 
28.4295 90.5018 78.8587 -2.69507 -0.436997 -127.709 -4.21882 -38.3186 3.34358 -27.1263 32.0547 61.9108 15.1405 -1.01624 -0.979742 0.0462048 0.000533964 0.662642 3.40466 5.14232 -3.55448 4.76439 9.4681 -8.13584 -8.53603 -2.88763 13.336 0 1.59028e-015 -0 -92.8478 -5.42018 -36.9667 26.7844 24.2831 -158.888 -8.82086 14.0082 69.0849 21.7257 5.01583 18.5477 35.5952 -66.9775 10.4013 52.1188 55.5076 66.2553 -9.0459 16.1005 46.0374 18.5136 -7.47551 -4.20246 -7.03722 52.165 11.5389 -13.1704 32.3174 4.7941 -1.7766e-030 1.82882e-014 5.56597e-015 
28.3675 89.8887 78.945 -4.64554 0.289113 -124.675 -6.53179 -36.7973 2.80939 -27.1735 35.058 59.8541 14.7361 -1.26769 -0.924785 0.0462048 0.000533964 0.662642 2.92678 5.31328 -3.07711 3.58106 9.91344 -7.12373 -7.61176 -1.08919 10.5205 1.59028e-015 0 6.36111e-015 -90.527 3.055 -32.9236 26.6041 13.5386 -157.767 -15.1053 9.7863 70.4036 23.3159 5.2425 18.2585 24.6169 -67.1615 0.440407 55.2391 53.885 64.322 -6.14453 17.3635 46.93 19.0296 -7.24077 -4.49285 -7.91606 52.6871 13.8031 -12.3101 35.5534 4.91264 0 2.70347e-014 -0 
28.3136 89.3876 79.1057 -6.4396 0.905135 -121.393 -8.84499 -34.8899 2.28519 -26.6101 37.4496 57.1589 14.4091 -1.17781 -0.894473 0.0462048 0.000533964 0.662642 2.43545 5.38622 -2.75079 2.50179 10.1929 -6.38569 -6.48787 0.967377 7.5168 -3.97252e-031 2.38542e-015 9.54166e-015 -89.5365 7.30054 -30.6079 26.0839 9.4844 -156.924 -17.6229 8.12934 70.3504 23.9944 5.25129 17.8117 15.3886 -66.1442 -9.17491 55.9377 53.0321 64.925 -4.9971 17.8755 47.2477 19.4944 -7.08943 -4.75082 -9.25835 53.5853 16.8516 -9.78133 36.0456 4.067 -6.36111e-015 2.22639e-014 9.54166e-015 
28.2979 89.0601 79.3933 -7.93138 1.38901 -117.971 -11.0312 -32.6993 1.84453 -25.3603 39.0816 53.832 14.0866 -0.802053 -0.8844 0.0462048 0.000533964 0.662642 1.96826 5.35396 -2.59971 1.57538 10.2719 -5.97732 -5.21331 3.16155 4.50943 8.82781e-032 -7.95139e-016 6.36111e-015 -89.4729 6.72877 -29.6494 24.7563 12.7149 -156.576 -16.0824 9.30284 69.6293 23.9497 5.10504 17.2907 9.12774 -64.4152 -17.0314 54.4247 53.0558 67.5929 -5.69566 17.559 47.1357 19.8904 -7.09861 -4.89765 -10.8659 54.6954 20.2281 -6.27961 33.4233 2.64358 -3.18055e-015 2.8625e-014 6.36111e-015 
